<mxfile host="app.diagrams.net" modified="2024-05-10T12:58:14.283Z" agent="Mozilla/5.0 (Windows NT 10.0; Win64; x64; rv:125.0) Gecko/20100101 Firefox/125.0" etag="IzuA3B3TpFFjaU1xV6Kh" version="24.2.3" type="github">
  <diagram name="Page-1" id="JWPP79yBpx-Rtv-s2Ma5">
    <mxGraphModel dx="771" dy="1657" grid="1" gridSize="10" guides="1" tooltips="1" connect="1" arrows="1" fold="1" page="1" pageScale="1" pageWidth="850" pageHeight="1100" math="0" shadow="0">
      <root>
        <mxCell id="0" />
        <mxCell id="1" parent="0" />
        <mxCell id="tisiuNeUIjjeBoUYgNED-27" value="Name" style="rounded=0;whiteSpace=wrap;html=1;" vertex="1" parent="1">
          <mxGeometry x="70" y="290" width="100" height="40" as="geometry" />
        </mxCell>
        <mxCell id="tisiuNeUIjjeBoUYgNED-28" value="&lt;div&gt;Attendee&lt;/div&gt;" style="text;html=1;align=center;verticalAlign=middle;whiteSpace=wrap;rounded=0;" vertex="1" parent="1">
          <mxGeometry x="70" y="250" width="60" height="30" as="geometry" />
        </mxCell>
        <mxCell id="tisiuNeUIjjeBoUYgNED-110" style="edgeStyle=orthogonalEdgeStyle;rounded=0;orthogonalLoop=1;jettySize=auto;html=1;exitX=0.5;exitY=1;exitDx=0;exitDy=0;entryX=0.5;entryY=0;entryDx=0;entryDy=0;" edge="1" parent="1" source="tisiuNeUIjjeBoUYgNED-29" target="tisiuNeUIjjeBoUYgNED-109">
          <mxGeometry relative="1" as="geometry">
            <Array as="points">
              <mxPoint x="220" y="350" />
              <mxPoint x="60" y="350" />
              <mxPoint x="60" y="700" />
              <mxPoint x="820" y="700" />
            </Array>
          </mxGeometry>
        </mxCell>
        <mxCell id="tisiuNeUIjjeBoUYgNED-29" value="Organization" style="rounded=0;whiteSpace=wrap;html=1;fillColor=#00FFFF;" vertex="1" parent="1">
          <mxGeometry x="170" y="290" width="100" height="40" as="geometry" />
        </mxCell>
        <mxCell id="tisiuNeUIjjeBoUYgNED-30" value="Plus_One" style="rounded=0;whiteSpace=wrap;html=1;" vertex="1" parent="1">
          <mxGeometry x="270" y="290" width="100" height="40" as="geometry" />
        </mxCell>
        <mxCell id="tisiuNeUIjjeBoUYgNED-31" value="Payment_status" style="rounded=0;whiteSpace=wrap;html=1;" vertex="1" parent="1">
          <mxGeometry x="370" y="290" width="100" height="40" as="geometry" />
        </mxCell>
        <mxCell id="tisiuNeUIjjeBoUYgNED-106" style="edgeStyle=orthogonalEdgeStyle;rounded=0;orthogonalLoop=1;jettySize=auto;html=1;exitX=0.5;exitY=1;exitDx=0;exitDy=0;entryX=0.5;entryY=0;entryDx=0;entryDy=0;" edge="1" parent="1" source="tisiuNeUIjjeBoUYgNED-32" target="tisiuNeUIjjeBoUYgNED-43">
          <mxGeometry relative="1" as="geometry" />
        </mxCell>
        <mxCell id="tisiuNeUIjjeBoUYgNED-32" value="Table_id" style="rounded=0;whiteSpace=wrap;html=1;fillColor=#00FFFF;" vertex="1" parent="1">
          <mxGeometry x="470" y="290" width="100" height="40" as="geometry" />
        </mxCell>
        <mxCell id="tisiuNeUIjjeBoUYgNED-33" value="Payment_method" style="rounded=0;whiteSpace=wrap;html=1;" vertex="1" parent="1">
          <mxGeometry x="570" y="290" width="100" height="40" as="geometry" />
        </mxCell>
        <mxCell id="tisiuNeUIjjeBoUYgNED-34" value="Phone_number" style="rounded=0;whiteSpace=wrap;html=1;" vertex="1" parent="1">
          <mxGeometry x="670" y="290" width="100" height="40" as="geometry" />
        </mxCell>
        <mxCell id="tisiuNeUIjjeBoUYgNED-35" value="Email_address" style="rounded=0;whiteSpace=wrap;html=1;" vertex="1" parent="1">
          <mxGeometry x="770" y="290" width="100" height="40" as="geometry" />
        </mxCell>
        <mxCell id="tisiuNeUIjjeBoUYgNED-36" value="Address" style="rounded=0;whiteSpace=wrap;html=1;" vertex="1" parent="1">
          <mxGeometry x="870" y="290" width="100" height="40" as="geometry" />
        </mxCell>
        <mxCell id="tisiuNeUIjjeBoUYgNED-37" value="Attended" style="rounded=0;whiteSpace=wrap;html=1;" vertex="1" parent="1">
          <mxGeometry x="970" y="290" width="100" height="40" as="geometry" />
        </mxCell>
        <mxCell id="tisiuNeUIjjeBoUYgNED-38" value="Meal_choice" style="rounded=0;whiteSpace=wrap;html=1;" vertex="1" parent="1">
          <mxGeometry x="1070" y="290" width="100" height="40" as="geometry" />
        </mxCell>
        <mxCell id="tisiuNeUIjjeBoUYgNED-39" value="Table" style="text;html=1;align=center;verticalAlign=middle;resizable=0;points=[];autosize=1;strokeColor=none;fillColor=none;" vertex="1" parent="1">
          <mxGeometry x="75" y="470" width="50" height="30" as="geometry" />
        </mxCell>
        <mxCell id="tisiuNeUIjjeBoUYgNED-40" value="Organization" style="rounded=0;whiteSpace=wrap;html=1;" vertex="1" parent="1">
          <mxGeometry x="70" y="500" width="100" height="40" as="geometry" />
        </mxCell>
        <mxCell id="tisiuNeUIjjeBoUYgNED-41" value="Seat_count" style="rounded=0;whiteSpace=wrap;html=1;" vertex="1" parent="1">
          <mxGeometry x="170" y="500" width="100" height="40" as="geometry" />
        </mxCell>
        <mxCell id="tisiuNeUIjjeBoUYgNED-43" value="&lt;u&gt;Table_id&lt;/u&gt;" style="rounded=0;whiteSpace=wrap;html=1;" vertex="1" parent="1">
          <mxGeometry x="270" y="500" width="100" height="40" as="geometry" />
        </mxCell>
        <mxCell id="tisiuNeUIjjeBoUYgNED-44" value="Organization" style="text;html=1;align=center;verticalAlign=middle;resizable=0;points=[];autosize=1;strokeColor=none;fillColor=none;" vertex="1" parent="1">
          <mxGeometry x="75" y="738" width="90" height="30" as="geometry" />
        </mxCell>
        <mxCell id="tisiuNeUIjjeBoUYgNED-45" value="Name" style="rounded=0;whiteSpace=wrap;html=1;" vertex="1" parent="1">
          <mxGeometry x="70" y="768" width="100" height="40" as="geometry" />
        </mxCell>
        <mxCell id="tisiuNeUIjjeBoUYgNED-46" value="Payment_details" style="rounded=0;whiteSpace=wrap;html=1;" vertex="1" parent="1">
          <mxGeometry x="170" y="768" width="100" height="40" as="geometry" />
        </mxCell>
        <mxCell id="tisiuNeUIjjeBoUYgNED-47" value="Table" style="rounded=0;whiteSpace=wrap;html=1;" vertex="1" parent="1">
          <mxGeometry x="270" y="768" width="100" height="40" as="geometry" />
        </mxCell>
        <mxCell id="tisiuNeUIjjeBoUYgNED-48" value="Head_count" style="rounded=0;whiteSpace=wrap;html=1;" vertex="1" parent="1">
          <mxGeometry x="370" y="768" width="100" height="40" as="geometry" />
        </mxCell>
        <mxCell id="tisiuNeUIjjeBoUYgNED-49" value="Email address" style="rounded=0;whiteSpace=wrap;html=1;" vertex="1" parent="1">
          <mxGeometry x="470" y="768" width="100" height="40" as="geometry" />
        </mxCell>
        <mxCell id="tisiuNeUIjjeBoUYgNED-50" value="Payment_status" style="rounded=0;whiteSpace=wrap;html=1;" vertex="1" parent="1">
          <mxGeometry x="570" y="768" width="100" height="40" as="geometry" />
        </mxCell>
        <mxCell id="tisiuNeUIjjeBoUYgNED-51" value="Phone_number" style="rounded=0;whiteSpace=wrap;html=1;" vertex="1" parent="1">
          <mxGeometry x="670" y="768" width="100" height="40" as="geometry" />
        </mxCell>
        <mxCell id="tisiuNeUIjjeBoUYgNED-52" value="Availability" style="rounded=0;whiteSpace=wrap;html=1;" vertex="1" parent="1">
          <mxGeometry x="1460" y="778" width="100" height="40" as="geometry" />
        </mxCell>
        <mxCell id="tisiuNeUIjjeBoUYgNED-53" value="Cost" style="text;html=1;align=center;verticalAlign=middle;resizable=0;points=[];autosize=1;strokeColor=none;fillColor=none;" vertex="1" parent="1">
          <mxGeometry x="95" y="980" width="50" height="30" as="geometry" />
        </mxCell>
        <mxCell id="tisiuNeUIjjeBoUYgNED-54" value="&lt;u&gt;Service&lt;/u&gt;" style="rounded=0;whiteSpace=wrap;html=1;" vertex="1" parent="1">
          <mxGeometry x="70" y="1010" width="100" height="40" as="geometry" />
        </mxCell>
        <mxCell id="tisiuNeUIjjeBoUYgNED-55" value="Paid" style="rounded=0;whiteSpace=wrap;html=1;" vertex="1" parent="1">
          <mxGeometry x="170" y="1010" width="100" height="40" as="geometry" />
        </mxCell>
        <mxCell id="tisiuNeUIjjeBoUYgNED-56" value="Total" style="rounded=0;whiteSpace=wrap;html=1;" vertex="1" parent="1">
          <mxGeometry x="270" y="1010" width="100" height="40" as="geometry" />
        </mxCell>
        <mxCell id="tisiuNeUIjjeBoUYgNED-57" value="Vendor" style="rounded=0;whiteSpace=wrap;html=1;" vertex="1" parent="1">
          <mxGeometry x="370" y="1010" width="100" height="40" as="geometry" />
        </mxCell>
        <mxCell id="tisiuNeUIjjeBoUYgNED-58" value="Vendor" style="text;html=1;align=center;verticalAlign=middle;resizable=0;points=[];autosize=1;strokeColor=none;fillColor=none;" vertex="1" parent="1">
          <mxGeometry x="70" y="18" width="60" height="30" as="geometry" />
        </mxCell>
        <mxCell id="tisiuNeUIjjeBoUYgNED-59" value="Name" style="rounded=0;whiteSpace=wrap;html=1;" vertex="1" parent="1">
          <mxGeometry x="70" y="48" width="100" height="40" as="geometry" />
        </mxCell>
        <mxCell id="tisiuNeUIjjeBoUYgNED-60" value="Phone_number" style="rounded=0;whiteSpace=wrap;html=1;" vertex="1" parent="1">
          <mxGeometry x="170" y="48" width="100" height="40" as="geometry" />
        </mxCell>
        <mxCell id="tisiuNeUIjjeBoUYgNED-61" value="Service" style="rounded=0;whiteSpace=wrap;html=1;" vertex="1" parent="1">
          <mxGeometry x="270" y="48" width="100" height="40" as="geometry" />
        </mxCell>
        <mxCell id="tisiuNeUIjjeBoUYgNED-62" value="&lt;u&gt;Total_cost&lt;/u&gt;" style="rounded=0;whiteSpace=wrap;html=1;" vertex="1" parent="1">
          <mxGeometry x="370" y="48" width="100" height="40" as="geometry" />
        </mxCell>
        <mxCell id="tisiuNeUIjjeBoUYgNED-63" value="Item" style="text;html=1;align=center;verticalAlign=middle;resizable=0;points=[];autosize=1;strokeColor=none;fillColor=none;" vertex="1" parent="1">
          <mxGeometry x="95" y="1220" width="50" height="30" as="geometry" />
        </mxCell>
        <mxCell id="tisiuNeUIjjeBoUYgNED-64" value="&lt;u&gt;Item_id&lt;/u&gt;" style="rounded=0;whiteSpace=wrap;html=1;" vertex="1" parent="1">
          <mxGeometry x="70" y="1250" width="100" height="40" as="geometry" />
        </mxCell>
        <mxCell id="tisiuNeUIjjeBoUYgNED-103" style="edgeStyle=orthogonalEdgeStyle;rounded=0;orthogonalLoop=1;jettySize=auto;html=1;exitX=0.5;exitY=0;exitDx=0;exitDy=0;entryX=0.5;entryY=0;entryDx=0;entryDy=0;" edge="1" parent="1" source="tisiuNeUIjjeBoUYgNED-111" target="tisiuNeUIjjeBoUYgNED-77">
          <mxGeometry relative="1" as="geometry">
            <Array as="points">
              <mxPoint x="1200" y="-70" />
              <mxPoint x="1525" y="-70" />
            </Array>
          </mxGeometry>
        </mxCell>
        <mxCell id="tisiuNeUIjjeBoUYgNED-65" value="purchase_Id" style="rounded=0;whiteSpace=wrap;html=1;fillColor=#00FFFF;" vertex="1" parent="1">
          <mxGeometry x="170" y="1250" width="100" height="40" as="geometry" />
        </mxCell>
        <mxCell id="tisiuNeUIjjeBoUYgNED-66" value="Value" style="rounded=0;whiteSpace=wrap;html=1;" vertex="1" parent="1">
          <mxGeometry x="270" y="1250" width="100" height="40" as="geometry" />
        </mxCell>
        <mxCell id="tisiuNeUIjjeBoUYgNED-101" style="edgeStyle=orthogonalEdgeStyle;rounded=0;orthogonalLoop=1;jettySize=auto;html=1;exitX=0.5;exitY=1;exitDx=0;exitDy=0;entryX=0.5;entryY=0;entryDx=0;entryDy=0;" edge="1" parent="1" source="tisiuNeUIjjeBoUYgNED-68" target="tisiuNeUIjjeBoUYgNED-108">
          <mxGeometry relative="1" as="geometry">
            <mxPoint x="420" y="1410" as="targetPoint" />
            <Array as="points" />
          </mxGeometry>
        </mxCell>
        <mxCell id="tisiuNeUIjjeBoUYgNED-68" value="Donor_name" style="rounded=0;whiteSpace=wrap;html=1;fillColor=#00FFFF;" vertex="1" parent="1">
          <mxGeometry x="370" y="1250" width="100" height="40" as="geometry" />
        </mxCell>
        <mxCell id="tisiuNeUIjjeBoUYgNED-69" value="Description" style="rounded=0;whiteSpace=wrap;html=1;" vertex="1" parent="1">
          <mxGeometry x="470" y="1250" width="100" height="40" as="geometry" />
        </mxCell>
        <mxCell id="tisiuNeUIjjeBoUYgNED-70" value="Title" style="rounded=0;whiteSpace=wrap;html=1;" vertex="1" parent="1">
          <mxGeometry x="570" y="1250" width="100" height="40" as="geometry" />
        </mxCell>
        <mxCell id="tisiuNeUIjjeBoUYgNED-72" value="Donor" style="text;html=1;align=center;verticalAlign=middle;resizable=0;points=[];autosize=1;strokeColor=none;fillColor=none;" vertex="1" parent="1">
          <mxGeometry x="90" y="1420" width="60" height="30" as="geometry" />
        </mxCell>
        <mxCell id="tisiuNeUIjjeBoUYgNED-73" value="Name" style="rounded=0;whiteSpace=wrap;html=1;" vertex="1" parent="1">
          <mxGeometry x="70" y="1450" width="100" height="40" as="geometry" />
        </mxCell>
        <mxCell id="tisiuNeUIjjeBoUYgNED-74" value="Address" style="rounded=0;whiteSpace=wrap;html=1;" vertex="1" parent="1">
          <mxGeometry x="170" y="1450" width="100" height="40" as="geometry" />
        </mxCell>
        <mxCell id="tisiuNeUIjjeBoUYgNED-75" value="Phone_number" style="rounded=0;whiteSpace=wrap;html=1;" vertex="1" parent="1">
          <mxGeometry x="270" y="1450" width="100" height="40" as="geometry" />
        </mxCell>
        <mxCell id="tisiuNeUIjjeBoUYgNED-76" value="&lt;div&gt;Purchase&lt;/div&gt;" style="text;html=1;align=center;verticalAlign=middle;resizable=0;points=[];autosize=1;strokeColor=none;fillColor=none;" vertex="1" parent="1">
          <mxGeometry x="1375" y="18" width="70" height="30" as="geometry" />
        </mxCell>
        <mxCell id="tisiuNeUIjjeBoUYgNED-98" style="edgeStyle=orthogonalEdgeStyle;rounded=0;orthogonalLoop=1;jettySize=auto;html=1;exitX=0.5;exitY=1;exitDx=0;exitDy=0;entryX=0.5;entryY=0;entryDx=0;entryDy=0;" edge="1" parent="1" source="tisiuNeUIjjeBoUYgNED-77" target="tisiuNeUIjjeBoUYgNED-64">
          <mxGeometry relative="1" as="geometry">
            <Array as="points">
              <mxPoint x="1525" y="130" />
              <mxPoint x="1720" y="130" />
              <mxPoint x="1720" y="1090" />
              <mxPoint x="190" y="1090" />
              <mxPoint x="190" y="1250" />
            </Array>
          </mxGeometry>
        </mxCell>
        <mxCell id="tisiuNeUIjjeBoUYgNED-77" value="&lt;u&gt;Purchase_id&lt;/u&gt;" style="rounded=0;whiteSpace=wrap;html=1;" vertex="1" parent="1">
          <mxGeometry x="1475" y="48" width="100" height="40" as="geometry" />
        </mxCell>
        <mxCell id="tisiuNeUIjjeBoUYgNED-78" value="Total" style="rounded=0;whiteSpace=wrap;html=1;" vertex="1" parent="1">
          <mxGeometry x="1375" y="48" width="100" height="40" as="geometry" />
        </mxCell>
        <mxCell id="tisiuNeUIjjeBoUYgNED-99" style="edgeStyle=orthogonalEdgeStyle;rounded=0;orthogonalLoop=1;jettySize=auto;html=1;exitX=0.5;exitY=1;exitDx=0;exitDy=0;entryX=0.75;entryY=0;entryDx=0;entryDy=0;" edge="1" parent="1">
          <mxGeometry relative="1" as="geometry">
            <mxPoint x="1610" y="90" as="sourcePoint" />
            <mxPoint x="130" y="290.0000000000002" as="targetPoint" />
            <Array as="points">
              <mxPoint x="1610" y="250" />
              <mxPoint x="130" y="250" />
            </Array>
          </mxGeometry>
        </mxCell>
        <mxCell id="tisiuNeUIjjeBoUYgNED-79" value="&lt;u&gt;Attendee_name&lt;/u&gt;" style="rounded=0;whiteSpace=wrap;html=1;fillColor=#00FFFF;" vertex="1" parent="1">
          <mxGeometry x="1575" y="48" width="100" height="42" as="geometry" />
        </mxCell>
        <mxCell id="tisiuNeUIjjeBoUYgNED-102" style="edgeStyle=orthogonalEdgeStyle;rounded=0;orthogonalLoop=1;jettySize=auto;html=1;exitX=0.5;exitY=0;exitDx=0;exitDy=0;fillColor=#99FF99;entryX=0.5;entryY=0;entryDx=0;entryDy=0;" edge="1" parent="1" source="tisiuNeUIjjeBoUYgNED-84" target="tisiuNeUIjjeBoUYgNED-79">
          <mxGeometry relative="1" as="geometry">
            <mxPoint x="1620" y="60" as="targetPoint" />
            <Array as="points">
              <mxPoint x="755" y="1180" />
              <mxPoint x="1230" y="1180" />
              <mxPoint x="1230" y="-20" />
              <mxPoint x="1620" y="-20" />
              <mxPoint x="1620" y="48" />
            </Array>
          </mxGeometry>
        </mxCell>
        <mxCell id="tisiuNeUIjjeBoUYgNED-104" value="Text" style="edgeLabel;html=1;align=center;verticalAlign=middle;resizable=0;points=[];" vertex="1" connectable="0" parent="tisiuNeUIjjeBoUYgNED-102">
          <mxGeometry x="-0.4007" relative="1" as="geometry">
            <mxPoint as="offset" />
          </mxGeometry>
        </mxCell>
        <mxCell id="tisiuNeUIjjeBoUYgNED-84" value="Purchase_attendee_name" style="rounded=0;whiteSpace=wrap;html=1;fillColor=#00CCCC;" vertex="1" parent="1">
          <mxGeometry x="670" y="1250" width="170" height="40" as="geometry" />
        </mxCell>
        <mxCell id="tisiuNeUIjjeBoUYgNED-85" value="Paid" style="rounded=0;whiteSpace=wrap;html=1;" vertex="1" parent="1">
          <mxGeometry x="470" y="48" width="100" height="40" as="geometry" />
        </mxCell>
        <mxCell id="tisiuNeUIjjeBoUYgNED-86" value="Provide" style="text;html=1;align=center;verticalAlign=middle;resizable=0;points=[];autosize=1;strokeColor=none;fillColor=none;" vertex="1" parent="1">
          <mxGeometry x="1350" y="250" width="60" height="30" as="geometry" />
        </mxCell>
        <mxCell id="tisiuNeUIjjeBoUYgNED-107" style="edgeStyle=orthogonalEdgeStyle;rounded=0;orthogonalLoop=1;jettySize=auto;html=1;exitX=0.5;exitY=0;exitDx=0;exitDy=0;entryX=0.5;entryY=1;entryDx=0;entryDy=0;" edge="1" parent="1" source="tisiuNeUIjjeBoUYgNED-87" target="tisiuNeUIjjeBoUYgNED-59">
          <mxGeometry relative="1" as="geometry">
            <mxPoint x="120" y="140" as="targetPoint" />
            <Array as="points">
              <mxPoint x="1410" y="230" />
              <mxPoint x="120" y="230" />
            </Array>
          </mxGeometry>
        </mxCell>
        <mxCell id="tisiuNeUIjjeBoUYgNED-87" value="&lt;u&gt;Vendor_Name&lt;/u&gt;" style="rounded=0;whiteSpace=wrap;html=1;fillColor=#00FFFF;" vertex="1" parent="1">
          <mxGeometry x="1360" y="290" width="100" height="40" as="geometry" />
        </mxCell>
        <mxCell id="tisiuNeUIjjeBoUYgNED-88" value="Donor_name" style="rounded=0;whiteSpace=wrap;html=1;fillColor=#00FFFF;" vertex="1" parent="1">
          <mxGeometry x="1460" y="290" width="100" height="40" as="geometry" />
        </mxCell>
        <mxCell id="tisiuNeUIjjeBoUYgNED-100" style="edgeStyle=orthogonalEdgeStyle;rounded=0;orthogonalLoop=1;jettySize=auto;html=1;exitX=0.5;exitY=0;exitDx=0;exitDy=0;entryX=0.5;entryY=1;entryDx=0;entryDy=0;" edge="1" parent="1" source="tisiuNeUIjjeBoUYgNED-117" target="tisiuNeUIjjeBoUYgNED-108">
          <mxGeometry relative="1" as="geometry">
            <mxPoint x="620" y="28.000000000000114" as="sourcePoint" />
            <mxPoint x="130" y="1560" as="targetPoint" />
            <Array as="points">
              <mxPoint x="710" y="48" />
              <mxPoint x="710" y="8" />
              <mxPoint x="30" y="8" />
              <mxPoint x="30" y="1530" />
              <mxPoint x="420" y="1530" />
            </Array>
          </mxGeometry>
        </mxCell>
        <mxCell id="tisiuNeUIjjeBoUYgNED-89" value="&lt;u&gt;VendorId&lt;/u&gt;" style="rounded=0;whiteSpace=wrap;html=1;fillColor=#00FFFF;" vertex="1" parent="1">
          <mxGeometry x="570" y="48" width="100" height="40" as="geometry" />
        </mxCell>
        <mxCell id="tisiuNeUIjjeBoUYgNED-90" value="Seated" style="text;html=1;align=center;verticalAlign=middle;resizable=0;points=[];autosize=1;strokeColor=none;fillColor=none;" vertex="1" parent="1">
          <mxGeometry x="1350" y="535" width="60" height="30" as="geometry" />
        </mxCell>
        <mxCell id="tisiuNeUIjjeBoUYgNED-91" value="&lt;u&gt;Seated&lt;/u&gt;" style="rounded=0;whiteSpace=wrap;html=1;fillColor=#00FFFF;" vertex="1" parent="1">
          <mxGeometry x="1360" y="580" width="100" height="40" as="geometry" />
        </mxCell>
        <mxCell id="tisiuNeUIjjeBoUYgNED-92" value="&lt;u&gt;Table_id&lt;/u&gt;" style="rounded=0;whiteSpace=wrap;html=1;fillColor=#00FFFF;" vertex="1" parent="1">
          <mxGeometry x="1460" y="580" width="100" height="40" as="geometry" />
        </mxCell>
        <mxCell id="tisiuNeUIjjeBoUYgNED-93" value="&lt;div&gt;Volunteer&lt;/div&gt;" style="text;html=1;align=center;verticalAlign=middle;resizable=0;points=[];autosize=1;strokeColor=none;fillColor=none;" vertex="1" parent="1">
          <mxGeometry x="1345" y="738" width="70" height="30" as="geometry" />
        </mxCell>
        <mxCell id="tisiuNeUIjjeBoUYgNED-94" value="Position" style="rounded=0;whiteSpace=wrap;html=1;" vertex="1" parent="1">
          <mxGeometry x="1360" y="778" width="100" height="40" as="geometry" />
        </mxCell>
        <mxCell id="tisiuNeUIjjeBoUYgNED-96" value="Hours_worked" style="rounded=0;whiteSpace=wrap;html=1;" vertex="1" parent="1">
          <mxGeometry x="1560" y="778" width="100" height="40" as="geometry" />
        </mxCell>
        <mxCell id="tisiuNeUIjjeBoUYgNED-97" value="Attendee_Name" style="rounded=0;whiteSpace=wrap;html=1;" vertex="1" parent="1">
          <mxGeometry x="1660" y="778" width="100" height="40" as="geometry" />
        </mxCell>
        <mxCell id="tisiuNeUIjjeBoUYgNED-108" value="&lt;u&gt;DonorId&lt;/u&gt;" style="rounded=0;whiteSpace=wrap;html=1;" vertex="1" parent="1">
          <mxGeometry x="370" y="1450" width="100" height="40" as="geometry" />
        </mxCell>
        <mxCell id="tisiuNeUIjjeBoUYgNED-109" value="&lt;u&gt;OrgId&lt;/u&gt;" style="rounded=0;whiteSpace=wrap;html=1;" vertex="1" parent="1">
          <mxGeometry x="770" y="768" width="100" height="40" as="geometry" />
        </mxCell>
        <mxCell id="tisiuNeUIjjeBoUYgNED-112" value="" style="edgeStyle=orthogonalEdgeStyle;rounded=0;orthogonalLoop=1;jettySize=auto;html=1;exitX=0.5;exitY=0;exitDx=0;exitDy=0;entryX=0.5;entryY=0;entryDx=0;entryDy=0;" edge="1" parent="1" source="tisiuNeUIjjeBoUYgNED-65" target="tisiuNeUIjjeBoUYgNED-111">
          <mxGeometry relative="1" as="geometry">
            <mxPoint x="220" y="1250" as="sourcePoint" />
            <mxPoint x="1525" y="48" as="targetPoint" />
            <Array as="points">
              <mxPoint x="220" y="1130" />
              <mxPoint x="1200" y="1130" />
            </Array>
          </mxGeometry>
        </mxCell>
        <mxCell id="tisiuNeUIjjeBoUYgNED-111" value="&lt;u&gt;AttendeeId&lt;/u&gt;" style="rounded=0;whiteSpace=wrap;html=1;" vertex="1" parent="1">
          <mxGeometry x="1170" y="290" width="100" height="40" as="geometry" />
        </mxCell>
        <mxCell id="tisiuNeUIjjeBoUYgNED-115" value="" style="edgeStyle=orthogonalEdgeStyle;rounded=0;orthogonalLoop=1;jettySize=auto;html=1;exitX=0.5;exitY=0;exitDx=0;exitDy=0;entryX=0.5;entryY=1;entryDx=0;entryDy=0;" edge="1" parent="1" source="tisiuNeUIjjeBoUYgNED-57" target="tisiuNeUIjjeBoUYgNED-89">
          <mxGeometry relative="1" as="geometry">
            <mxPoint x="720" y="83.33333333333333" as="targetPoint" />
            <mxPoint x="420" y="1010" as="sourcePoint" />
          </mxGeometry>
        </mxCell>
        <mxCell id="tisiuNeUIjjeBoUYgNED-117" value="Donor" style="rounded=0;whiteSpace=wrap;html=1;fillColor=#00FFFF;" vertex="1" parent="1">
          <mxGeometry x="670" y="48" width="100" height="40" as="geometry" />
        </mxCell>
      </root>
    </mxGraphModel>
  </diagram>
</mxfile>
